<svg width="32" height="32" viewBox="0 0 32 32" fill="none" xmlns="http://www.w3.org/2000/svg">
<path d="M15.4516 6.41956C15.748 6.56676 16.0812 6.9895 16.305 7.23946C18.2244 9.38368 19.2313 12.1147 19.0532 14.9894C18.8808 17.7713 17.507 20.2415 15.4449 22.0672C15.0544 21.8002 14.6971 21.4203 14.3847 21.0671C12.6329 19.0859 11.6728 16.3024 11.84 13.6615C12.0125 10.9388 13.4043 8.21446 15.4516 6.41956Z" fill="#0D0B0A"/>
<path d="M23.6197 10.3132C23.6254 10.3229 23.6319 10.3321 23.6368 10.3422C23.746 10.5646 23.7776 10.9176 23.8054 11.1645C23.9497 12.4485 23.8302 13.7358 23.3787 14.9516C22.2504 17.9888 19.6426 20.2245 16.7593 21.55C16.7253 21.5496 16.7481 21.5523 16.6963 21.5221C16.8725 21.2339 17.1182 20.9762 17.3215 20.7054C17.6324 20.2826 17.9142 19.8392 18.1648 19.3785C19.048 17.7532 19.4704 15.9658 19.4691 14.1225C19.4687 13.599 19.4567 13.0761 19.3052 12.5708C19.5756 12.2707 19.9069 12.0178 20.2285 11.7744C21.265 10.99 22.3094 10.4441 23.6197 10.3132Z" fill="#0D0B0A"/>
<path d="M7.24644 10.3259C7.40204 10.3319 7.55904 10.3521 7.71293 10.3755C8.89735 10.5557 9.93368 11.1865 10.8589 11.9164C11.1172 12.1201 11.3997 12.3326 11.5941 12.6003C11.1022 15.1277 11.7547 17.7779 13.0616 19.9638C13.2703 20.3112 13.4958 20.6481 13.7372 20.9739C13.8525 21.129 13.9897 21.2699 14.0931 21.4327L14.0565 21.4803C11.9016 20.5588 9.88303 18.9281 8.58445 16.979C7.22211 14.934 6.77163 12.7312 7.24644 10.3259Z" fill="#0D0B0A"/>
<path d="M25.7283 15.9662C26.0719 15.9251 26.8419 15.8818 27.1299 16.0652C27.1444 16.1085 27.1487 16.1128 27.1502 16.1654C27.156 16.367 27.0243 16.6687 26.956 16.8567C26.499 18.1543 25.7166 19.313 24.6838 20.2218C22.6619 22.0095 20.0411 22.651 17.3943 22.4807C16.8943 22.4285 16.379 22.3937 15.8984 22.2405C18.116 21.5584 20.2255 20.1649 21.7539 18.4247C22.1296 17.9969 22.405 17.5001 22.7706 17.0699C23.4644 16.2532 24.7224 16.0373 25.7283 15.9662Z" fill="#0D0B0A"/>
<path d="M4.54306 16.0338C5.57648 15.912 6.97875 16.0822 7.82995 16.7256C8.33602 17.1082 8.641 17.8185 9.05925 18.3021C10.3672 19.8167 12.0053 21.011 13.8475 21.7928C14.2398 21.9607 14.6436 22.136 15.0584 22.2381L14.2293 22.3766C11.8148 22.7241 9.31281 22.2927 7.24693 20.9495C5.8401 20.0345 4.84954 18.7799 4.26718 17.215C4.18168 16.9855 4.0537 16.7364 4.00999 16.4973C3.98445 16.3576 4.00693 16.2656 4.08852 16.1472C4.21839 16.0516 4.38723 16.0528 4.54306 16.0338Z" fill="#0D0B0A"/>
<path d="M15.5762 22.4019C15.9962 22.5512 16.4189 22.6707 16.8595 22.7423C17.6186 22.8653 18.5006 22.8293 19.1826 23.2247C19.6862 23.5168 20.202 24.2008 20.3443 24.768C20.3704 24.8721 20.3629 24.8806 20.3095 24.9668C19.7824 25.1568 19.2705 25.1115 18.746 24.9398C17.4825 24.5266 16.1946 23.6058 15.5762 22.4019Z" fill="#0D0B0A"/>
<path d="M15.3384 22.4049C15.365 22.4026 15.3906 22.4165 15.4164 22.4239C15.4151 22.4359 15.4153 22.4482 15.4124 22.4602C15.3476 22.7291 14.3074 23.8255 14.0672 24.0155C13.2373 24.6708 12.005 25.1912 10.9342 25.0631C10.9056 25.0569 10.8658 25.0492 10.8398 25.0372C10.7821 25.0105 10.7456 24.9892 10.7304 24.927C10.6898 24.7594 10.785 24.5652 10.8612 24.4198C11.1064 23.9509 11.4905 23.4007 11.9717 23.1473C12.5648 22.8355 13.4406 22.8367 14.0998 22.7195C14.5221 22.6444 14.929 22.5299 15.3384 22.4049Z" fill="#0D0B0A"/>
</svg>
